<?xml version="1.0" encoding="UTF-8"?>
<svg version="1.1" xmlns="http://www.w3.org/2000/svg" width="2000" height="2000">
<path d="M0 0 C4.19454566 3.73054725 8.19791835 7.61814352 12.1484375 11.60546875 C12.92703125 12.38664063 13.705625 13.1678125 14.5078125 13.97265625 C23.4906974 23.39587864 29.59682444 34.08036974 35.2734375 45.73046875 C35.58112061 46.34567383 35.88880371 46.96087891 36.20581055 47.59472656 C37.99973736 51.43832486 38.35014132 53.57038636 37.1484375 57.60546875 C35.7565918 59.84692383 35.7565918 59.84692383 33.97265625 62.125 C33.31587891 62.97384766 32.65910156 63.82269531 31.98242188 64.69726562 C31.27408203 65.59509766 30.56574219 66.49292969 29.8359375 67.41796875 C28.36014414 69.31989908 26.88488774 71.22224618 25.41015625 73.125 C24.31646729 74.52806396 24.31646729 74.52806396 23.20068359 75.95947266 C20.47306497 79.47623813 17.80564292 83.03540119 15.1484375 86.60546875 C10.27338654 93.12117827 5.37547715 99.61949525 0.4609375 106.10546875 C-0.24740234 107.04519531 -0.95574219 107.98492188 -1.68554688 108.953125 C-2.34232422 109.81808594 -2.99910156 110.68304687 -3.67578125 111.57421875 C-4.26447998 112.35216797 -4.85317871 113.13011719 -5.4597168 113.93164062 C-5.91902588 114.48400391 -6.37833496 115.03636719 -6.8515625 115.60546875 C-7.1815625 115.60546875 -7.5115625 115.60546875 -7.8515625 115.60546875 C-7.87343628 114.64060547 -7.87343628 114.64060547 -7.89575195 113.65625 C-8.60883621 85.39493198 -12.73499377 62.2010695 -33.8515625 41.60546875 C-50.78786144 27.53831256 -70.33688299 22.96701084 -91.8515625 24.60546875 C-105.76243646 26.16119081 -119.52499326 33.25742522 -129.8515625 42.60546875 C-130.5115625 43.17394531 -131.1715625 43.74242187 -131.8515625 44.328125 C-145.14326139 56.55544957 -153.3626427 74.63174391 -154.1875 92.61328125 C-154.56808105 114.1233895 -149.56207463 132.29846693 -134.8515625 148.60546875 C-134.24828125 149.3015625 -133.645 149.99765625 -133.0234375 150.71484375 C-121.36808488 163.34963777 -103.81092577 170.93476201 -86.7578125 171.859375 C-59.18650211 172.84619418 -38.58660979 158.49359179 -18.8515625 140.60546875 C-11.71031209 133.94262873 -5.07636538 126.98295989 0.9921875 119.3203125 C3.21216942 116.52522657 5.51743135 113.81917481 7.8359375 111.10546875 C14.03346481 103.67994841 19.69772164 95.87095847 25.37695312 88.04589844 C27.07206542 85.71068035 28.77368597 83.38034064 30.4765625 81.05078125 C35.98527176 73.49100972 41.35392755 65.85932015 46.5859375 58.10546875 C52.569285 49.26048074 59.00698122 40.82924379 65.65771484 32.47802734 C66.90785472 30.90767476 68.14844073 29.32972292 69.38671875 27.75 C91.54588559 -0.37333183 117.1910818 -23.78154083 154.1484375 -28.39453125 C188.13546058 -30.60968198 219.87530261 -24.10117724 246.1484375 -1.39453125 C268.60557887 18.63774554 280.66495271 42.70318912 284.1484375 72.60546875 C284.4065902 77.74949965 284.40310227 82.88550986 284.37548828 88.03442383 C284.37492261 89.53385918 284.37524376 91.03329507 284.37637329 92.5327301 C284.37694173 96.56080731 284.36527089 100.5887628 284.35122538 104.61681199 C284.33863218 108.84216569 284.3375408 113.06752288 284.33517456 117.29289246 C284.32898483 125.27524514 284.31260833 133.25754235 284.29247558 141.23987073 C284.27003806 150.33551732 284.25910349 159.43116671 284.24908471 168.52683413 C284.22823958 187.21975008 284.19159509 205.91259008 284.1484375 224.60546875 C266.3284375 224.60546875 248.5084375 224.60546875 230.1484375 224.60546875 C230.12656372 218.15028687 230.12656372 218.15028687 230.10424805 211.56469727 C230.05376898 197.29949984 229.98729779 183.03440941 229.91272259 168.76931858 C229.86792176 160.12576588 229.82847172 151.48225294 229.80200195 142.83862305 C229.7788937 135.29725628 229.74535499 127.75601703 229.69973594 120.21475166 C229.67597502 116.22857864 229.65713492 112.24253054 229.65082359 108.25628853 C230.13942797 72.54895592 230.13942797 72.54895592 214.1484375 41.60546875 C201.42801032 29.20626447 186.05368237 24.08043885 168.63500977 24.18359375 C150.80591825 24.69256584 137.24933698 33.15221231 125.1328125 45.69140625 C110.59721983 61.58601774 97.96670652 79.62819079 85.63256836 97.24365234 C75.25547813 112.0403901 64.32810445 126.40877247 53.1484375 140.60546875 C52.41109375 141.54777344 51.67375 142.49007813 50.9140625 143.4609375 C49.01689559 145.86375426 47.08997681 148.23838658 45.1484375 150.60546875 C44.37628906 151.56324219 43.60414063 152.52101563 42.80859375 153.5078125 C15.14013144 187.19808314 -21.69469375 219.36308067 -66.7265625 224.32421875 C-102.78197408 227.10869608 -136.53613027 218.47745093 -164.56347656 195.18261719 C-190.95726031 172.54423125 -206.63861372 142.23557806 -209.57421875 107.6015625 C-212.02886632 73.90309416 -201.28900181 40.89762857 -179.28857422 15.24169922 C-134.17258728 -36.12889957 -53.05649593 -44.55292056 0 0 Z " fill="#1F3C88" transform="translate(708.8515625,940.39453125)"/>
<path d="M0 0 C20.18942054 15.8168455 33.77422088 33.53227128 44.6875 56.5625 C45.29078125 57.68591797 45.29078125 57.68591797 45.90625 58.83203125 C46.6875 60.5625 46.6875 60.5625 46.6875 63.5625 C14.02676275 64.10310298 -10.70358778 60.66339146 -37.43286133 41.03051758 C-48.89887175 32.67129803 -59.05238493 30.20964829 -73.0625 30.25 C-74.1659375 30.23388672 -75.269375 30.21777344 -76.40625 30.20117188 C-87.11750087 30.19488593 -96.84909893 32.23809504 -106.375 37.1875 C-107.05054932 37.53449951 -107.72609863 37.88149902 -108.42211914 38.23901367 C-126.34228476 47.77301028 -138.65353538 64.29068366 -144.8125 83.4375 C-149.87155569 104.87073146 -146.39553443 125.75287855 -135.3125 144.5625 C-132.85079327 148.10483784 -130.1946679 151.35623289 -127.3125 154.5625 C-126.79429688 155.17351562 -126.27609375 155.78453125 -125.7421875 156.4140625 C-113.86599212 169.48384535 -95.9660221 176.61128999 -78.66796875 177.81640625 C-58.64527614 178.42553625 -39.33001947 172.11489562 -24.3125 158.5625 C-23.6525 157.9025 -22.9925 157.2425 -22.3125 156.5625 C-39.8025 156.2325 -57.2925 155.9025 -75.3125 155.5625 C-73.34980744 139.86095954 -71.28148677 126.91885656 -58.921875 116.55859375 C-49.27809063 109.47366628 -40.07527506 107.3978318 -28.27783203 107.44897461 C-27.38938095 107.44882858 -26.50092987 107.44868256 -25.58555603 107.4485321 C-22.66378291 107.44922594 -19.74207441 107.45699353 -16.8203125 107.46484375 C-14.78864578 107.46670981 -12.75697861 107.46813283 -10.72531128 107.46913147 C-5.38898467 107.47294185 -0.05268545 107.48275949 5.28363037 107.49383545 C10.73335398 107.50408139 16.18308203 107.50863591 21.6328125 107.51367188 C32.31772034 107.52438311 43.00260789 107.54144174 53.6875 107.5625 C53.37774947 110.61283155 53.06498628 113.66280385 52.75048828 116.71264648 C52.66354202 117.57195518 52.57659576 118.43126389 52.48701477 119.31661224 C51.8780557 125.19143696 51.07018372 130.90534415 49.5625 136.625 C49.35222168 137.44025146 49.14194336 138.25550293 48.92529297 139.09545898 C40.29795297 170.68127867 18.13459465 197.80485016 -9.8984375 214.3359375 C-40.61447284 231.63287296 -77.5981924 235.43574583 -111.53076172 225.97021484 C-131.34261558 219.98195552 -148.00640833 209.30267256 -163.3125 195.5625 C-164.11558594 194.84449219 -164.91867187 194.12648438 -165.74609375 193.38671875 C-188.5937776 171.76083618 -201.37152402 140.56135471 -202.55859375 109.4140625 C-203.32816302 73.23395381 -191.06433372 41.40279604 -166.171875 15.08984375 C-123.49995969 -28.81731122 -49.83845505 -36.36689296 0 0 Z " fill="#39C5A8" transform="translate(1452.3125,934.4375)"/>
<path d="M0 0 C1.27125732 0.00491455 2.54251465 0.0098291 3.85229492 0.01489258 C13.47574957 0.13447288 22.43606996 0.91638522 31.75 3.3125 C32.40677734 3.47878906 33.06355469 3.64507813 33.74023438 3.81640625 C66.38952735 12.31718648 94.63005752 34.4709253 111.75 63.3125 C116.6446832 71.68775144 120.29407039 80.22035341 123.125 89.5 C123.48319824 90.67405396 123.48319824 90.67405396 123.84863281 91.87182617 C130.22756809 114.16809741 129.9176991 139.02607072 123.75 161.3125 C123.57339844 161.97846191 123.39679688 162.64442383 123.21484375 163.33056641 C117.87107285 182.97882033 106.61792343 199.65477858 92.75 214.3125 C91.99074219 215.13621094 91.23148438 215.95992187 90.44921875 216.80859375 C68.92336312 239.39136537 37.56105137 252.62013098 6.5078125 253.515625 C-11.99340036 253.77242727 -28.82053132 251.56009211 -46.25 245.3125 C-47.27222656 244.95542969 -48.29445313 244.59835937 -49.34765625 244.23046875 C-62.20850585 239.33192173 -73.8542568 231.22313703 -84.25 222.3125 C-85.27287109 221.48878906 -85.27287109 221.48878906 -86.31640625 220.6484375 C-92.1137153 215.8608359 -96.66114026 210.24247015 -101.25 204.3125 C-101.9203125 203.46945312 -102.590625 202.62640625 -103.28125 201.7578125 C-124.04383141 174.65110899 -130.23011861 141.85871572 -126.95703125 108.30957031 C-122.62879799 76.04561648 -104.72919997 47.02968874 -79.5390625 26.75390625 C-56.03471166 8.93516444 -29.55320326 -0.13606266 0 0 Z M-53.25 75.3125 C-53.84167969 75.89515625 -54.43335938 76.4778125 -55.04296875 77.078125 C-68.36285765 91.21934754 -73.9816878 111.20451996 -73.5 130.1875 C-72.5245591 150.90586464 -63.2325186 169.18672235 -48.25 183.3125 C-31.90555651 196.8353655 -13.28783436 202.4491217 7.75 201.3125 C27.62276438 198.62183787 45.5844804 188.91134083 58.23046875 173.23828125 C70.88485463 155.66627808 76.21831085 136.53241381 73.45703125 115.03125 C71.03772674 100.25528269 64.84160463 87.44155931 54.75 76.3125 C54.05003906 75.53132812 53.35007812 74.75015625 52.62890625 73.9453125 C39.68613549 60.24120229 22.21136369 52.44796433 3.46386719 51.9074707 C-19.50961653 51.66098205 -37.29832885 58.93908949 -53.25 75.3125 Z " fill="#39C5A8" transform="translate(1660.25,911.6875)"/>
<path d="M0 0 C17.73104778 14.96265202 30.77054528 34.20519955 39.41992188 55.69580078 C39.41992188 56.35580078 39.41992188 57.01580078 39.41992188 57.69580078 C7.33693196 58.15028358 -18.23863882 55.27567501 -44.22363281 35.57250977 C-59.03757416 24.47770504 -75.89461272 22.86243469 -93.91113281 24.96826172 C-107.53046761 27.17258321 -120.16017818 33.53704274 -129.94335938 43.22705078 C-131.58007812 44.69580078 -131.58007812 44.69580078 -133.58007812 44.69580078 C-133.84433594 45.27587891 -134.10859375 45.85595703 -134.38085938 46.45361328 C-135.62917014 48.78758846 -137.05535094 50.55687682 -138.76757812 52.57080078 C-151.94451904 69.37140045 -155.32629593 88.84435538 -153.58007812 109.69580078 C-151.65425074 124.39723184 -144.38440236 137.78898226 -134.58007812 148.69580078 C-134.061875 149.30681641 -133.54367187 149.91783203 -133.00976562 150.54736328 C-121.10043261 163.65361418 -102.99539354 170.95710101 -85.60742188 171.91455078 C-67.87515727 172.44779123 -54.61071985 168.11783688 -40.33007812 157.82080078 C-16.00016407 140.27876425 10.24359828 137.2796567 39.41992188 137.69580078 C38.7923549 142.29206591 36.94287936 146.11030709 34.85742188 150.19580078 C34.50099609 150.89850098 34.14457031 151.60120117 33.77734375 152.32519531 C28.33997897 162.89174384 22.14403328 172.63628308 14.41992188 181.69580078 C13.79472656 182.45505859 13.16953125 183.21431641 12.52539062 183.99658203 C-7.80151365 207.96659746 -38.54113211 221.65072024 -69.46679688 224.41845703 C-103.7185732 226.94993424 -136.73191571 217.92728802 -163.29101562 195.67626953 C-164.04640625 195.02271484 -164.80179687 194.36916016 -165.58007812 193.69580078 C-166.39734375 193.01130859 -167.21460938 192.32681641 -168.05664062 191.62158203 C-184.01969141 177.85777508 -195.10057105 160.25278729 -202.58007812 140.69580078 C-202.9796875 139.65423828 -203.37929687 138.61267578 -203.79101562 137.53955078 C-214.57668639 106.07458644 -210.94488691 70.8100379 -196.58374023 41.25195312 C-181.38253651 11.22853078 -154.32561787 -11.49598467 -122.66186523 -22.48193359 C-81.01611814 -35.99147102 -33.80307753 -27.90111869 0 0 Z " fill="#1F3C88" transform="translate(431.580078125,940.30419921875)"/>
<path d="M0 0 C17.82 0 35.64 0 54 0 C54 30.69 54 61.38 54 93 C67.53 93 81.06 93 95 93 C95 108.51 95 124.02 95 140 C81.47 140 67.94 140 54 140 C54.08578002 153.31822047 54.17967298 166.63631776 54.28752708 179.95437813 C54.3372999 186.1396476 54.38363052 192.32490155 54.421875 198.51025391 C54.45896934 204.4885172 54.50539236 210.46664426 54.55806351 216.44478989 C54.57647995 218.71630316 54.59163399 220.98784549 54.60334396 223.25940323 C54.67507494 255.4604181 54.67507494 255.4604181 70 283 C82.12474703 293.34418978 95.22810186 293.1699001 111 294 C111 311.16 111 328.32 111 346 C78.52255364 346 53.65838777 342.94274258 30 320 C29.39929687 319.47277344 28.79859375 318.94554687 28.1796875 318.40234375 C13.63901658 305.18047787 5.50262282 284.93746279 2 266 C1.83169741 265.1374655 1.66339481 264.27493099 1.48999214 263.38625908 C-0.54333033 251.39348464 -0.26580783 239.4052237 -0.22705078 227.27783203 C-0.22648585 224.79304 -0.22680483 222.30824764 -0.22793579 219.82345581 C-0.22838915 214.49908045 -0.22276879 209.17476608 -0.21146011 203.85040665 C-0.19512097 196.15253724 -0.18998856 188.45469146 -0.18748413 180.7568066 C-0.18312014 168.26380156 -0.16984644 155.77082282 -0.15087891 143.27783203 C-0.1324864 131.15088023 -0.11834645 119.02393561 -0.10986328 106.89697266 C-0.10933783 106.1479279 -0.10881239 105.39888314 -0.10827102 104.62714006 C-0.10566071 100.86894303 -0.10313335 97.11074595 -0.10064721 93.35254884 C-0.07995512 62.23500924 -0.04310732 31.11751862 0 0 Z " fill="#1F3C88" transform="translate(1022,819)"/>
<path d="M0 0 C17.82 0 35.64 0 54 0 C54 83.49 54 166.98 54 253 C36.18 253 18.36 253 0 253 C0 169.51 0 86.02 0 0 Z " fill="#1F3C88" transform="translate(1161,912)"/>
<path d="M0 0 C0.66 0 1.32 0 2 0 C2 49.17 2 98.34 2 149 C-16.15 149 -34.3 149 -53 149 C-53.40108809 131.34321082 -53.40108809 131.34321082 -53.48828125 123.734375 C-53.54774315 118.57022544 -53.61756261 113.40787196 -53.75439453 108.24511719 C-53.86418895 104.07573644 -53.92307207 99.90828416 -53.94877243 95.7375679 C-53.96705117 94.15791114 -54.00274223 92.57834328 -54.05730057 90.99952316 C-54.47909762 78.27073646 -51.1372207 71.62484921 -43 62 C-41.6745869 60.15140415 -40.36561812 58.29069979 -39.0859375 56.41015625 C-38.47838623 55.53560791 -37.87083496 54.66105957 -37.24487305 53.76000977 C-36.62781494 52.86983154 -36.01075684 51.97965332 -35.375 51.0625 C-33.99353142 49.07288762 -32.61201971 47.08330518 -31.23046875 45.09375 C-30.18511963 43.58748047 -30.18511963 43.58748047 -29.11865234 42.05078125 C-27.01510607 39.02175218 -24.90852933 35.99485646 -22.80078125 32.96875 C-21.77549316 31.49631836 -21.77549316 31.49631836 -20.72949219 29.99414062 C-19.38054159 28.05748368 -18.03094426 26.12127703 -16.68066406 24.18554688 C-13.6318887 19.80929975 -10.60022605 15.42401589 -7.62109375 11 C-7.1103833 10.24452881 -6.59967285 9.48905762 -6.07348633 8.71069336 C-5.1337853 7.31705955 -4.19967277 5.91963489 -3.2722168 4.51782227 C-2.23171528 2.97674291 -1.12288698 1.48212476 0 0 Z " fill="#1F3C88" transform="translate(820,1016)"/>
<path d="M0 0 C6.09110223 5.20658573 10.4720651 11.09260509 11.34375 19.1953125 C11.7407621 28.38614269 10.34639419 35.10683127 4.16796875 42.0625 C-2.818704 48.67710142 -9.48782788 50.60851403 -19.03125 50.35546875 C-25.51886702 49.57866197 -31.38255612 46.61744388 -36 42 C-41.14493176 35.14509093 -44.18826534 27.71394582 -43 19 C-41.12194716 10.8696953 -37.77799111 4.96663141 -31 0 C-20.963 -5.78931536 -10.11701318 -5.64740736 0 0 Z " fill="#39C5A8" transform="translate(1204,823)"/>
</svg>
